<mxfile host="app.diagrams.net" modified="2024-07-23T07:58:24.455Z" agent="Mozilla/5.0 (Macintosh; Intel Mac OS X 10_15_7) AppleWebKit/537.36 (KHTML, like Gecko) Chrome/125.0.0.0 Safari/537.36 Edg/125.0.0.0" version="24.3.1" etag="frXIN-e8t0MRMuJu3ra9" type="github">
  <diagram name="第 1 页" id="o6c2e3ixal4ANL2qIWZ2">
    <mxGraphModel>
      <root>
        <mxCell id="0" />
        <mxCell id="1" parent="0" />
      </root>
    </mxGraphModel>
  </diagram>
</mxfile>
